<svg xmlns="http://www.w3.org/2000/svg" width="1180" height="610" viewBox="0 0 1180 610" role="img" aria-labelledby="title desc">
  <title id="title">Saksham's developer profile</title><desc id="desc">Animated light developer profile banner for GitHub user skx56.</desc>
  <defs>
    <linearGradient id="bg" x1="0" x2="1" y1="0" y2="1"><stop stop-color="#fff"/><stop offset=".54" stop-color="#f4f8ff"/><stop offset="1" stop-color="#edfdf8"/></linearGradient><linearGradient id="accent" x1="0" x2="1"><stop stop-color="#2563eb"><animate attributeName="stop-color" values="#2563eb;#06b6d4;#10b981;#2563eb" dur="7s" repeatCount="indefinite"/></stop><stop offset=".5" stop-color="#06b6d4"/><stop offset="1" stop-color="#10b981"/></linearGradient><radialGradient id="orb"><stop stop-color="#06b6d4" stop-opacity=".18"/><stop offset="1" stop-color="#06b6d4" stop-opacity="0"/></radialGradient><filter id="blur"><feGaussianBlur stdDeviation="28"/></filter><filter id="glow"><feGaussianBlur stdDeviation="3" result="b"/><feMerge><feMergeNode in="b"/><feMergeNode in="SourceGraphic"/></feMerge></filter><clipPath id="clip"><rect x="1" y="1" width="1178" height="608" rx="25"/></clipPath></defs>
  <g clip-path="url(#clip)"><rect width="1180" height="610" fill="url(#bg)"/><circle cx="110" cy="100" r="220" fill="url(#orb)" filter="url(#blur)"/><circle cx="1060" cy="540" r="270" fill="#2563eb" opacity=".08" filter="url(#blur)"/><g stroke="#0f172a" stroke-opacity=".07"><path d="M0 105H1180M0 210H1180M0 315H1180M0 420H1180M0 525H1180"/><path d="M95 0V610M200 0V610M305 0V610M410 0V610M515 0V610M620 0V610M725 0V610M830 0V610M935 0V610M1040 0V610"/></g>
    <g transform="translate(51 56)" font-family="ui-monospace, SFMono-Regular, Menlo, Monaco, Consolas, monospace" fill="url(#accent)" filter="url(#glow)"><animateTransform attributeName="transform" type="translate" values="51 56;51 48;51 56" dur="4s" repeatCount="indefinite"/><text x="0" y="45" font-size="30">   _____ _  ___  __</text><text x="0" y="78" font-size="30">  / ___/| |/ / |/ /</text><text x="0" y="111" font-size="30">  \__ \ |   /|   / </text><text x="0" y="144" font-size="30"> ___/ / |   \|   &lt;  </text><text x="0" y="177" font-size="30">/____/  |_|\_\_|\_\ </text><text x="16" y="237" font-size="13" fill="#475569">BUILD · LEARN · SHIP</text></g>
    <g transform="translate(492 58)"><rect width="638" height="494" rx="19" fill="#fff" fill-opacity=".88" stroke="#0f172a" stroke-opacity=".14"/><circle cx="29" cy="29" r="6" fill="#fb7185"/><circle cx="50" cy="29" r="6" fill="#fbbf24"/><circle cx="71" cy="29" r="6" fill="#34d399"/><text x="100" y="34" fill="#475569" font-family="ui-monospace,monospace" font-size="13">skx56@github: ~/profile</text><path d="M0 58H638" stroke="#0f172a" stroke-opacity=".1"/><g font-family="ui-monospace,monospace" font-size="18"><text x="32" y="107" fill="#059669">$</text><text x="53" y="107" fill="#0f172a">whoami</text><text x="32" y="146" fill="#475569">Saksham</text><text x="32" y="190" fill="#059669">$</text><text x="53" y="190" fill="#0f172a">cat focus.txt</text><text x="32" y="229" fill="#475569">Building, learning, and sharing in public.</text><text x="32" y="273" fill="#059669">$</text><text x="53" y="273" fill="#0f172a">ls skills/</text></g><g font-family="ui-monospace,monospace" font-size="13" fill="#0f172a"><g transform="translate(32 302)"><rect width="92" height="30" rx="15" fill="#dbeafe" stroke="#60a5fa"/><text x="18" y="20">Python</text></g><g transform="translate(135 302)"><rect width="108" height="30" rx="15" fill="#cffafe" stroke="#22d3ee"/><text x="18" y="20">JavaScript</text></g><g transform="translate(254 302)"><rect width="81" height="30" rx="15" fill="#d1fae5" stroke="#34d399"/><text x="18" y="20">Git</text></g><g transform="translate(346 302)"><rect width="93" height="30" rx="15" fill="#e0e7ff" stroke="#818cf8"/><text x="18" y="20">Linux</text></g></g><path d="M1 350H637" stroke="#0f172a" stroke-opacity=".1"/><g font-family="ui-monospace,monospace" font-size="16"><text x="32" y="388" fill="#059669">$</text><text x="53" y="388" fill="#0f172a">echo "Let's connect"</text><text x="32" y="429" fill="url(#accent)">github.com/skx56</text><rect x="205" y="414" width="9" height="19" fill="#0f172a"><animate attributeName="opacity" values="1;1;0;0" dur="1s" repeatCount="indefinite"/></rect></g></g>
    <rect x="1" y="1" width="1178" height="608" rx="25" fill="none" stroke="url(#accent)" stroke-opacity=".72"/><rect x="1" y="1" width="1178" height="608" rx="25" fill="none" stroke="#0f172a" stroke-opacity=".12"><animate attributeName="stroke-opacity" values=".06;.24;.06" dur="3s" repeatCount="indefinite"/></rect><rect width="1180" height="3" fill="url(#accent)"><animate attributeName="y" values="0;607;0" dur="7s" repeatCount="indefinite"/></rect>
  </g>
</svg>
